# xmcd CD database file
# Copyright (C) 1993-1998 Ti Kan
#
# Track frame offsets:
#	150
#	2195
#	8792
#	14458
#	17841
#	31874
#	41986
#	54771
#	61010
#	72676
#	76183
#	83586
#	84939
#	97316
#	108744
#	118302
#	127923
#	138563
#	151021
#	152543
#
# Disc length: 2269 seconds
#
# Revision: 1
# Processed by: cddbd v1.4b41PL1 Copyright (c) Steve Scherf et al.
# Submitted via: CDValet v3.31 - Copyright (c) 1997 Greg Leichner
#
DISCID=f608db14
DTITLE=Johnny Cash - Anthologies Of Legends -The Louisiana Hayr
DTITLE=ide - Disc 2
DYEAR=1900
DGENRE=
TTITLE0=Narration
TTITLE1=Hey Proter (Version 2)
TTITLE2=Busted
TTITLE3=Narration
TTITLE4=Orange Blossom Special
TTITLE5=Frankie And Johnny
TTITLE6=Supper Time
TTITLE7=Narration
TTITLE8=It Ain't Me Babe
TTITLE9=I Guess Things Happen That Way
TTITLE10=Ballad Of A Teenage Queeen
TTITLE11=Narration
TTITLE12=Jackson
TTITLE13=Long Legged Guitar Pickin' Man
TTITLE14=Dirty Old Egg Sucking Dog
TTITLE15=Walking The Blues
TTITLE16=Blistered
TTITLE17=Wreck Of The Old 97
TTITLE18=Narration
TTITLE19=Were You There (When They Crucified My Lord)
EXTD=IMC Licensing
EXTT0=
EXTT1=
EXTT2=
EXTT3=
EXTT4=
EXTT5=
EXTT6=
EXTT7=
EXTT8=
EXTT9=
EXTT10=
EXTT11=
EXTT12=
EXTT13=
EXTT14=
EXTT15=
EXTT16=
EXTT17=
EXTT18=
EXTT19=
PLAYORDER=
